HIERARCHY
ROOT Hips
{
	OFFSET 0.000000 0.000000 0.000000
	CHANNELS 6 Xposition Yposition Zposition Zrotation Yrotation Xrotation 
	JOINT LHipJoint
	{
		OFFSET 0.000000 0.000000 0.000000
		CHANNELS 3 Zrotation Yrotation Xrotation
		JOINT LeftUpLeg
		{
			OFFSET 1.363060 -1.794630 0.839290
			CHANNELS 3 Zrotation Yrotation Xrotation
			JOINT LeftLeg
			{
				OFFSET 2.448110 -6.726130 0.000000
				CHANNELS 3 Zrotation Yrotation Xrotation
				JOINT LeftFoot
				{
					OFFSET 2.562200 -7.039590 0.000000
					CHANNELS 3 Zrotation Yrotation Xrotation
					JOINT LeftToeBase
					{
						OFFSET 0.157640 -0.433110 2.322550
						CHANNELS 3 Zrotation Yrotation Xrotation
						End Site
						{
							OFFSET 0.000000 0.000000 0.000000
						}
					}
				}
			}
		}
	}
	JOINT RHipJoint
	{
		OFFSET 0.000000 0.000000 0.000000
		CHANNELS 3 Zrotation Yrotation Xrotation
		JOINT RightUpLeg
		{
			OFFSET -1.305520 -1.794630 0.839290
			CHANNELS 3 Zrotation Yrotation Xrotation
			JOINT RightLeg
			{
				OFFSET -2.542530 -6.985550 0.000000
				CHANNELS 3 Zrotation Yrotation Xrotation
				JOINT RightFoot
				{
					OFFSET -2.568260 -7.056230 0.000000
					CHANNELS 3 Zrotation Yrotation Xrotation
					JOINT RightToeBase
					{
						OFFSET -0.164730 -0.452590 2.363150
						CHANNELS 3 Zrotation Yrotation Xrotation
						End Site
						{
							OFFSET 0.000000 0.000000 0.000000
						}
					}
				}
			}
		}
	}
	JOINT LowerBack
	{
		OFFSET 0.000000 0.000000 0.000000
		CHANNELS 3 Zrotation Yrotation Xrotation
		JOINT Spine
		{
			OFFSET 0.028270 2.035590 -0.193380
			CHANNELS 3 Zrotation Yrotation Xrotation
			JOINT Spine1
			{
				OFFSET 0.056720 2.048850 -0.042750
				CHANNELS 3 Zrotation Yrotation Xrotation
				JOINT Neck
				{
					OFFSET 0.000000 0.000000 0.000000
					CHANNELS 3 Zrotation Yrotation Xrotation
					JOINT Neck1
					{
						OFFSET -0.054170 1.746240 0.172020
						CHANNELS 3 Zrotation Yrotation Xrotation
						JOINT Head
						{
							OFFSET 0.104070 1.761360 -0.123970
							CHANNELS 3 Zrotation Yrotation Xrotation
							End Site
							{
								OFFSET 0.000000 0.000000 0.000000
							}
						}
					}
				}
				JOINT LeftShoulder
				{
					OFFSET 0.000000 0.000000 0.000000
					CHANNELS 3 Zrotation Yrotation Xrotation
					JOINT LeftArm
					{
						OFFSET 3.362410 1.200890 -0.311210
						CHANNELS 3 Zrotation Yrotation Xrotation
						JOINT LeftForeArm
						{
							OFFSET 4.983000 -0.000000 -0.000000
							CHANNELS 3 Zrotation Yrotation Xrotation
							JOINT LeftHand
							{
								OFFSET 3.483560 -0.000000 -0.000000
								CHANNELS 3 Zrotation Yrotation Xrotation
								JOINT LeftFingerBase
								{
									OFFSET 0.000000 0.000000 0.000000
									CHANNELS 3 Zrotation Yrotation Xrotation
									JOINT LeftHandIndex1
									{
										OFFSET 0.715260 -0.000000 -0.000000
										CHANNELS 3 Zrotation Yrotation Xrotation
										End Site
										{
											OFFSET 0.000000 0.000000 0.000000
										}
									}
								}
								JOINT LThumb
								{
									OFFSET 0.000000 0.000000 0.000000
									CHANNELS 3 Zrotation Yrotation Xrotation
									End Site
									{
										OFFSET 0.000000 0.000000 0.000000
									}
								}
							}
						}
					}
				}
				JOINT RightShoulder
				{
					OFFSET 0.000000 0.000000 0.000000
					CHANNELS 3 Zrotation Yrotation Xrotation
					JOINT RightArm
					{
						OFFSET -3.136600 1.374050 -0.404650
						CHANNELS 3 Zrotation Yrotation Xrotation
						JOINT RightForeArm
						{
							OFFSET -5.241900 -0.000000 -0.000000
							CHANNELS 3 Zrotation Yrotation Xrotation
							JOINT RightHand
							{
								OFFSET -3.444170 -0.000000 -0.000000
								CHANNELS 3 Zrotation Yrotation Xrotation
								JOINT RightFingerBase
								{
									OFFSET 0.000000 0.000000 0.000000
									CHANNELS 3 Zrotation Yrotation Xrotation
									JOINT RightHandIndex1
									{
										OFFSET -0.622530 -0.000000 -0.000000
										CHANNELS 3 Zrotation Yrotation Xrotation
										End Site
										{
											OFFSET 0.000000 0.000000 0.000000
										}
									}
								}
								JOINT RThumb
								{
									OFFSET 0.000000 0.000000 0.000000
									CHANNELS 3 Zrotation Yrotation Xrotation
									End Site
									{
										OFFSET 0.000000 0.000000 0.000000
									}
								}
							}
						}
					}
				}
			}
		}
	}
}
MOTION
Frames: 10
Frame Time: 0.008333
10.202421 17.877258 11.314090 -179.088893 -3.378806 -151.753991 9.698805 0.935304 -1.971498 -22.144921 -21.564814 -21.519426 -1.038424 6.200857 13.426942 0.646459 -2.534331 -18.343323 3.994900 -12.153600 -36.277700 -14.059235 -2.552885 -1.028266 29.949994 22.248587 -20.449560 1.159121 -5.486529 11.437065 -1.208044 -0.007692 -22.975971 -2.393700 9.642100 -27.825300 -2.430758 0.596227 -25.135881 1.424282 -0.317828 -5.830522 -0.559149 -1.055750 12.419780 -11.504217 1.000463 -0.893491 12.998917 -2.211042 17.101395 2.944800 -0.468400 2.741000 15.881614 -1.828775 0.592532 -105.730371 -3.364168 20.080656 12.495774 -14.311853 -2.026943 -1.539035 0.754735 5.735309 18.909062 -9.654448 -3.789500 -7.125000 0.000000 0.000000 -4.615100 19.127300 2.857300 -11.122508 -0.382119 -0.000201 100.567704 -1.667304 10.044341 -13.083729 23.298224 -3.538157 0.873311 3.672530 1.681933 -13.323641 -45.693977 10.775200 7.125000 0.000000 0.000000 52.277000 -75.013800 -39.252500 
10.201656 17.877586 11.313981 -179.093570 -3.378292 -151.717717 9.702063 0.929053 -1.973893 -22.135989 -21.605411 -21.566771 -1.039583 6.213130 13.443657 0.651425 -2.483963 -18.338295 4.046000 -12.221300 -36.519500 -14.063208 -2.547815 -1.025062 29.919500 22.300194 -20.481513 1.160553 -5.495467 11.446786 -1.208439 -0.035358 -22.991786 -2.401000 9.655600 -27.868500 -2.457747 0.570044 -25.228387 1.436729 -0.345559 -5.823645 -0.521501 -1.072675 12.497842 -11.583086 1.016956 -0.882464 13.001019 -2.190613 17.104120 2.963800 -0.460800 2.734100 15.877263 -1.837901 0.594598 -105.757865 -3.442718 20.065765 12.495929 -14.307268 -2.024819 -1.545510 0.750474 5.697937 18.956827 -9.618420 -3.785400 -7.125000 0.000000 0.000000 -4.576400 19.165800 2.829300 -11.120441 -0.383958 0.001420 100.532613 -1.667886 10.173952 -13.105974 23.329109 -3.548582 0.882645 3.654714 1.497026 -13.591731 -45.339149 10.939500 7.125000 0.000000 0.000000 50.817100 -74.924600 -37.953000 
10.201765 17.877258 11.313762 -179.061839 -3.380865 -151.673336 9.707129 0.919193 -1.980004 -22.054617 -21.667715 -21.623741 -1.037941 6.239823 13.498870 0.655698 -2.484571 -18.397185 3.953400 -12.098200 -36.080200 -14.069874 -2.536484 -1.017106 29.915257 22.424686 -20.500975 1.165706 -5.495123 11.424094 -1.207550 -0.095238 -23.005511 -2.375600 9.608200 -27.717100 -2.451202 0.567348 -25.335455 1.433467 -0.346760 -5.810755 -0.537667 -1.077229 12.594466 -11.561458 1.012914 -0.900945 12.996666 -2.193100 17.112151 2.957400 -0.460300 2.734900 15.879880 -1.844678 0.597378 -105.709423 -3.527703 20.065512 12.492993 -14.309185 -2.027376 -1.527330 0.783842 5.710152 18.829430 -9.912337 -3.876800 -7.125000 0.000000 0.000000 -4.683300 18.828800 2.931000 -11.122689 -0.385125 0.003344 100.579103 -1.622259 10.222625 -13.128763 23.363841 -3.559894 0.886210 3.650078 1.411303 -13.724188 -45.263966 11.035500 7.125000 0.000000 0.000000 50.434800 -74.933900 -37.645600 
10.200671 17.877914 11.313434 -179.084758 -3.347408 -151.687742 9.709425 0.922194 -1.979569 -22.095160 -21.660598 -21.609565 -1.035609 6.248267 13.525847 0.656132 -2.502387 -18.423314 3.924000 -12.058500 -35.939300 -14.065633 -2.532223 -1.016858 29.868756 22.447452 -20.493873 1.164669 -5.494672 11.424088 -1.207620 -0.081551 -23.004046 -2.381300 9.618800 -27.750800 -2.478623 0.590126 -25.305345 1.401126 -0.297669 -5.811263 -0.595936 -1.056994 12.562497 -11.496616 0.987052 -0.923389 12.991445 -2.223016 17.111724 2.942500 -0.473200 2.743000 15.883442 -1.843800 0.595729 -105.627644 -3.534420 20.071029 12.484645 -14.306946 -2.030441 -1.509388 0.844682 5.810543 18.740853 -10.410711 -4.058000 -7.125000 0.000000 0.000000 -4.764700 18.247700 3.043700 -11.133579 -0.383878 0.003542 100.697033 -1.634013 10.127983 -13.131882 23.373349 -3.562446 0.888986 3.651455 1.437836 -13.760884 -45.334082 11.076400 7.125000 0.000000 0.000000 50.632400 -74.987000 -37.859100 
10.199250 17.879008 11.313981 -179.164311 -3.292580 -151.736354 9.708497 0.931150 -1.979190 -22.243488 -21.591182 -21.573133 -1.032722 6.244283 13.527178 0.649395 -2.543073 -18.395273 3.905700 -12.033900 -35.851900 -14.060341 -2.532050 -1.023617 29.775265 22.437729 -20.434575 1.162673 -5.482334 11.411337 -1.207504 -0.092664 -22.990396 -2.401100 9.655800 -27.869000 -2.581593 0.580462 -25.265260 1.384447 -0.262026 -5.796536 -0.573722 -1.045390 12.586285 -11.508529 0.984961 -0.921019 13.000622 -2.229495 17.115585 2.946300 -0.476100 2.743100 15.877643 -1.852147 0.597424 -105.660986 -3.596652 19.960469 12.473134 -14.285792 -2.024305 -1.521131 0.872178 5.913475 18.882089 -10.585256 -4.163600 -7.125000 0.000000 0.000000 -4.658900 18.027300 2.998300 -11.133538 -0.382503 0.006249 100.720443 -1.612244 10.060134 -13.118724 23.350357 -3.555277 0.899338 3.635702 1.461929 -13.855224 -45.066171 11.109600 7.125000 0.000000 0.000000 49.639200 -74.870900 -36.931100 
10.197828 17.879117 11.313981 -179.193803 -3.254544 -151.753228 9.705367 0.937146 -1.979495 -22.310575 -21.537512 -21.524216 -1.036648 6.209624 13.447466 0.645990 -2.558506 -18.370493 3.850900 -11.959300 -35.588100 -14.059781 -2.534932 -1.027155 29.744115 22.427901 -20.386899 1.165168 -5.466096 11.381107 -1.205165 -0.178564 -22.969140 -2.454500 9.754600 -28.185700 -2.634363 0.569508 -25.272879 1.389230 -0.256434 -5.786857 -0.527388 -1.045809 12.625637 -11.549571 0.992504 -0.917403 13.012445 -2.222741 17.118357 2.957500 -0.473300 2.741400 15.871036 -1.860355 0.599262 -105.723433 -3.655846 19.867230 12.463670 -14.264259 -2.017242 -1.532334 0.871505 5.951166 18.980955 -10.542211 -4.170900 -7.125000 0.000000 0.000000 -4.580200 18.067500 2.943300 -11.126997 -0.380610 0.007066 100.661686 -1.553148 10.108784 -13.101682 23.321420 -3.546801 0.893663 3.647292 1.383368 -13.853110 -45.189922 11.129400 7.125000 0.000000 0.000000 50.067100 -74.943600 -37.351300 
10.196078 17.878789 11.313106 -179.146877 -3.260154 -151.741159 9.702150 0.932532 -1.982587 -22.245995 -21.552142 -21.526043 -1.037330 6.214513 13.460899 0.652485 -2.566736 -18.453679 3.833300 -11.935200 -35.503300 -14.062150 -2.533614 -1.024149 29.785865 22.460506 -20.390913 1.168549 -5.474259 11.395707 -1.211505 -0.233574 -23.037139 -2.491500 9.822400 -28.403600 -2.590640 0.584042 -25.323992 1.401718 -0.257152 -5.783294 -0.513098 -1.045575 12.665784 -11.555594 0.987774 -0.919386 13.023714 -2.232464 17.121959 2.961300 -0.477900 2.741400 15.869517 -1.866228 0.599898 -105.743714 -3.710486 19.812445 12.461206 -14.257790 -2.015438 -1.517974 0.855810 6.112346 18.869826 -10.363161 -4.072000 -7.125000 0.000000 0.000000 -4.663500 18.285100 2.974800 -11.121426 -0.379172 0.007210 100.615143 -1.506484 10.138773 -13.093973 23.311433 -3.544109 0.873933 3.683272 1.279869 -13.733131 -45.726643 11.119300 7.125000 0.000000 0.000000 52.036900 -75.197500 -39.228100 
10.193891 17.878570 11.312778 -179.170406 -3.242317 -151.701366 9.699107 0.924041 -2.002416 -22.258133 -21.609848 -21.590803 -1.031492 6.274290 13.595875 0.661601 -2.571408 -18.572743 3.837900 -11.941400 -35.525200 -14.065934 -2.528777 -1.053206 29.739915 22.416079 -20.463678 1.162291 -5.505580 11.466201 -1.220209 -0.100221 -23.109438 -2.494600 9.828100 -28.422000 -2.600768 0.571040 -25.363712 1.436903 -0.264059 -5.606797 -0.533974 -1.038612 12.499648 -11.565225 0.991272 -0.873584 13.019823 -2.228469 17.111085 2.967200 -0.477400 2.739700 15.880316 -1.889594 0.619245 -105.781633 -3.765153 19.626694 12.459321 -14.246074 -2.013276 -1.505817 0.867363 6.414333 18.842662 -10.344608 -4.059800 -7.125000 0.000000 0.000000 -4.687400 18.301900 2.988400 -11.129868 -0.342079 0.028340 100.581611 -1.500257 10.208912 -13.121655 23.344406 -3.557286 0.865832 3.674811 1.195321 -13.642709 -45.614985 11.027300 7.125000 0.000000 0.000000 51.713600 -75.098800 -38.863600 
10.191594 17.878570 11.312997 -179.245686 -3.203629 -151.687899 9.701012 0.926802 -1.999882 -22.374023 -21.583673 -21.622754 -1.028296 6.285996 13.620185 0.654580 -2.576114 -18.506009 3.864300 -11.977600 -35.652900 -14.060275 -2.531222 -1.058095 29.632073 22.351392 -20.506877 1.156919 -5.508861 11.475773 -1.217662 -0.012874 -23.077392 -2.506000 9.848900 -28.488700 -2.670175 0.541391 -25.382929 1.433162 -0.276796 -5.605994 -0.524296 -1.048281 12.512965 -11.594090 1.009247 -0.868374 13.018844 -2.204650 17.111897 2.973800 -0.466400 2.737000 15.877131 -1.890272 0.622277 -105.790369 -3.769146 19.474282 12.440701 -14.221669 -2.006520 -1.511930 0.909364 6.492288 18.941106 -10.658835 -4.212000 -7.125000 0.000000 0.000000 -4.618200 17.921300 2.982800 -11.134164 -0.344265 0.026709 100.539053 -1.573057 10.379239 -13.193993 23.447757 -3.590173 0.857274 3.665453 1.094490 -13.598515 -45.481137 10.968400 7.125000 0.000000 0.000000 51.281700 -75.005300 -38.414900 
10.190063 17.877586 11.313106 -179.260589 -3.188532 -151.683430 9.702364 0.931596 -2.002023 -22.422879 -21.505883 -21.599311 -1.030751 6.251415 13.538096 0.642759 -2.583967 -18.381412 3.867100 -11.981400 -35.666300 -14.062678 -2.529686 -1.052800 29.600620 22.410049 -20.458629 1.160268 -5.480646 11.405872 -1.215841 -0.033128 -23.061223 -2.439000 9.726200 -28.094500 -2.677436 0.521947 -25.388905 1.435148 -0.300495 -5.610713 -0.532703 -1.060744 12.503374 -11.609257 1.029373 -0.851509 13.009787 -2.178974 17.114436 2.975700 -0.454800 2.732700 15.875781 -1.892736 0.624776 -105.766203 -3.778105 19.392801 12.412576 -14.178835 -1.995448 -1.515774 0.935829 6.463022 18.984543 -10.865061 -4.308000 -7.125000 0.000000 0.000000 -4.589300 17.671800 2.989200 -11.139174 -0.344856 0.025220 100.513872 -1.647717 10.582640 -13.266599 23.555579 -3.625085 0.841556 3.683430 0.945555 -13.559631 -45.785796 10.984700 7.125000 0.000000 0.000000 52.368800 -75.155600 -39.465800 
